<svg width="24" height="24" viewBox="0 0 24 24" fill="none" xmlns="http://www.w3.org/2000/svg">
<g filter="url(#filter0_d_7425_27391)">
<path d="M12 4.34961C16.2181 4.34961 19.6504 7.78192 19.6504 12C19.6504 16.2181 16.2181 19.6504 12 19.6504C7.78192 19.6504 4.34961 16.2181 4.34961 12C4.34961 7.78192 7.78192 4.34961 12 4.34961Z" fill="#2196F3" stroke="white" stroke-width="0.7"/>
<path d="M16.0542 10.3047L11.7208 14.6379C11.5908 14.7679 11.4202 14.8334 11.2495 14.8334C11.0789 14.8334 10.9082 14.7679 10.7782 14.6379L8.61157 12.4713C8.35083 12.2107 8.35083 11.7893 8.61157 11.5287C8.87219 11.2679 9.29346 11.2679 9.5542 11.5287L11.2495 13.224L15.1116 9.36206C15.3722 9.10132 15.7935 9.10132 16.0542 9.36206C16.3148 9.62268 16.3148 10.0439 16.0542 10.3047Z" fill="#FAFAFA"/>
</g>
<defs>
<filter id="filter0_d_7425_27391" x="0" y="0" width="24" height="24" filterUnits="userSpaceOnUse" color-interpolation-filters="sRGB">
<feFlood flood-opacity="0" result="BackgroundImageFix"/>
<feColorMatrix in="SourceAlpha" type="matrix" values="0 0 0 0 0 0 0 0 0 0 0 0 0 0 0 0 0 0 127 0" result="hardAlpha"/>
<feOffset/>
<feGaussianBlur stdDeviation="2"/>
<feComposite in2="hardAlpha" operator="out"/>
<feColorMatrix type="matrix" values="0 0 0 0 0.104793 0 0 0 0 0.316737 0 0 0 0 0.502188 0 0 0 0.72 0"/>
<feBlend mode="normal" in2="BackgroundImageFix" result="effect1_dropShadow_7425_27391"/>
<feBlend mode="normal" in="SourceGraphic" in2="effect1_dropShadow_7425_27391" result="shape"/>
</filter>
</defs>
</svg>
