<svg width="16" height="17" viewBox="0 0 16 17" fill="none" xmlns="http://www.w3.org/2000/svg">
<path d="M14.8561 7.90811C14.7282 5.97419 13.7693 4.16812 12.2509 2.96941C10.7325 1.77069 8.75064 1.27522 6.8327 1.59488C3.41236 2.18624 0.903047 5.35085 1.14279 8.83512C1.25467 10.5133 1.95792 12.0637 3.14065 13.2464C2.83698 13.6939 2.56527 13.9816 1.84604 14.557C1.70219 14.6689 1.63826 14.8447 1.68621 15.0205C1.71817 15.1963 1.84604 15.3402 2.00587 15.3881C2.24561 15.468 2.59723 15.5 2.9968 15.5C3.8439 15.5 4.91475 15.3082 5.74586 14.8766C6.84868 15.2602 8.03141 15.3561 9.19816 15.1484C12.6185 14.541 15.0958 11.3604 14.8561 7.90811ZM4.80287 9.61828C4.17954 9.61828 3.68407 9.12281 3.68407 8.49948C3.68407 7.87615 4.17954 7.38068 4.80287 7.38068C5.4262 7.38068 5.92167 7.87615 5.92167 8.49948C5.92167 9.12281 5.4262 9.61828 4.80287 9.61828ZM7.99945 9.61828C7.37611 9.61828 6.88064 9.12281 6.88064 8.49948C6.88064 7.87615 7.37611 7.38068 7.99945 7.38068C8.62278 7.38068 9.11825 7.87615 9.11825 8.49948C9.11825 9.12281 8.62278 9.61828 7.99945 9.61828ZM11.196 9.61828C10.5727 9.61828 10.0772 9.12281 10.0772 8.49948C10.0772 7.87615 10.5727 7.38068 11.196 7.38068C11.8194 7.38068 12.3148 7.87615 12.3148 8.49948C12.3148 9.12281 11.8194 9.61828 11.196 9.61828Z" fill="#AEAEB2"/>
</svg>
